<?xml version="1.0" encoding="UTF-8"?>
<svg id="Calque_1" xmlns="http://www.w3.org/2000/svg" version="1.1" xmlns:xlink="http://www.w3.org/1999/xlink" viewBox="0 0 500 500">
  <!-- Generator: Adobe Illustrator 29.8.1, SVG Export Plug-In . SVG Version: 2.1.1 Build 2)  -->
  <defs>
    <style>
      .st0 {
        fill: url(#Or_radial);
      }

      .st1 {
        fill-rule: evenodd;
        stroke: url(#Dégradé_sans_nom_223);
        stroke-width: 2.96px;
      }

      .st1, .st2 {
        fill: #fff;
        stroke-miterlimit: 10;
      }

      .st3 {
        fill: url(#Or_radial1);
      }

      .st4 {
        fill: url(#Or_radial2);
      }

      .st2 {
        stroke: url(#Dégradé_sans_nom_258);
        stroke-width: 4.95px;
      }

      .st5 {
        fill: url(#Dégradé_sans_nom_34);
      }

      .st6 {
        opacity: .7;
      }
    </style>
    <linearGradient id="Dégradé_sans_nom_258" data-name="Dégradé sans nom 258" x1="438.06" y1="362.36" x2="54.26" y2="140.77" gradientTransform="translate(494.57 1.36) rotate(90) scale(1 .98)" gradientUnits="userSpaceOnUse">
      <stop offset=".01" stop-color="#efc981"/>
      <stop offset=".15" stop-color="#efca82"/>
      <stop offset=".31" stop-color="#f2d78f"/>
      <stop offset=".56" stop-color="#f8f0e4"/>
      <stop offset="1" stop-color="#c59211"/>
    </linearGradient>
    <radialGradient id="Or_radial" data-name="Or radial" cx="128.48" cy="285.26" fx="128.48" fy="285.26" r="58.12" gradientUnits="userSpaceOnUse">
      <stop offset="0" stop-color="#fffad2"/>
      <stop offset=".11" stop-color="#fbf2c0"/>
      <stop offset=".34" stop-color="#f3de94"/>
      <stop offset=".37" stop-color="#f2dc8e"/>
      <stop offset=".69" stop-color="#f0bf00"/>
      <stop offset="1" stop-color="#c9961a"/>
    </radialGradient>
    <radialGradient id="Or_radial1" data-name="Or radial" cx="260.06" cy="285.54" fx="260.06" fy="285.54" r="58.74" xlink:href="#Or_radial"/>
    <radialGradient id="Dégradé_sans_nom_34" data-name="Dégradé sans nom 34" cx="358.92" cy="285.26" fx="358.92" fy="285.26" r="47.21" gradientTransform="translate(0 28.53) scale(1 .9)" gradientUnits="userSpaceOnUse">
      <stop offset=".34" stop-color="#f0bf00"/>
      <stop offset=".35" stop-color="#eebd01"/>
      <stop offset=".58" stop-color="#d9a70e"/>
      <stop offset=".8" stop-color="#cd9a17"/>
      <stop offset="1" stop-color="#c9961a"/>
    </radialGradient>
    <linearGradient id="Dégradé_sans_nom_223" data-name="Dégradé sans nom 223" x1="102.4" y1="247.64" x2="464.43" y2="247.64" gradientUnits="userSpaceOnUse">
      <stop offset="0" stop-color="#f8f0e4"/>
      <stop offset="0" stop-color="#f6e8ca"/>
      <stop offset=".59" stop-color="#f2d78f"/>
      <stop offset="1" stop-color="#c58511"/>
    </linearGradient>
    <radialGradient id="Or_radial2" data-name="Or radial" cx="296.51" cy="178.23" fx="296.51" fy="178.23" r="163.74" gradientTransform="translate(.57 -.14) rotate(.09) skewX(.19)" xlink:href="#Or_radial"/>
  </defs>
  <ellipse class="st2" cx="247.59" cy="247.52" rx="221.02" ry="217.02" transform="translate(-50.98 430.34) rotate(-76.47)"/>
  <g class="st6">
    <path class="st0" d="M80.37,223.19c0-2.48,1.87-4.57,4.08-4.57,2.38,0,4.25,2.09,4.25,4.57v74.83c0,24.56,17.85,44.36,39.61,44.55,22.1-.19,39.95-19.99,39.95-44.55v-74.83c0-2.48,1.87-4.57,4.08-4.57,2.38,0,4.25,2.09,4.25,4.57v74.83c0,29.7-21.59,53.88-48.28,53.88s-47.94-24.18-47.94-53.88v-74.83Z"/>
    <path class="st3" d="M301.88,237.66l-38.08,59.21c-.85,1.52-2.21,2.09-3.4,2.09h-.34c-1.53,0-2.72-.57-3.57-2.09l-38.08-59.02v109.48c0,2.47-1.87,4.57-4.08,4.57-2.38,0-4.25-2.09-4.25-4.57v-123.38c0-1.52.68-2.86,1.7-3.62,0-.19.17-.19.34-.38,1.87-1.33,4.42-.95,5.78,1.14l42.33,65.69,42.16-65.69c1.19-2.09,3.91-2.48,5.78-1.14.51.57.85.95,1.19,1.52.34.76.68,1.71.68,2.48v123.38c0,2.47-1.87,4.57-4.08,4.57-2.38,0-4.08-2.09-4.08-4.57v-109.67Z"/>
    <path class="st5" d="M354.75,223.19c0-2.48,1.87-4.57,4.08-4.57,2.38,0,4.25,2.09,4.25,4.57v124.14c0,2.47-1.87,4.57-4.25,4.57-2.21,0-4.08-2.09-4.08-4.57v-124.14Z"/>
  </g>
  <path class="st1" d="M456.62,203.53c-4.04-17.24-17.82-72.55-68.09-119.34-6.37-5.93-63.32-57.54-138.46-58.9-15.19-.27-26.4,1.59-36.89,7.44-34.81,19.41-49.01,75.49-30.77,94.57,7.79,8.15,25.07,11.48,38.29,4.62,11.99-6.22,16.13-18.45,17.15-21.81,23.71,3.45,71.35,13.9,111.91,50.56,21.99,19.87,33.55,39.91,36.08,44.4,16.17,28.7,19.83,54.86,20.89,65.44,4.72,47.38-12.93,83.18-19.19,95.46-8.85,17.37-35.85,63.57-92.83,86.23-40.94,16.28-76.57,12.14-85.38,10.93-61.65-8.47-103.94-51.41-105.39-49.3-.82,1.2,13.95,13.29,27.91,22.43,19.32,12.65,36.96,19.55,48,23.22,34.65,11.5,65.02,11.21,81.91,9.91,10.53-.81,42.46-4.07,78.95-22.07,21.61-10.66,55.33-31.66,82.78-70.15,11.86-16.63,33.58-51.97,38.48-95.32,0,0,3.66-32.33-3.06-67.57-1.02-5.33-2.28-10.76-2.28-10.76Z"/>
  <path class="st4" d="M465.87,221.11c2.45,21.46,1.28,38.82.26,48.46-1.07,10.09-2.55,17.25-3.98,24.13-3.78,18.25-7.57,25.96-9.2,29.15-2.21,4.33-4.39,7.71-5.93,9.95,2.07-6.45,4.87-16.49,6.52-29.02,6.06-45.88-8.86-81.92-13.3-92.28-6.77-15.79-15.07-28.61-20.87-37.57-.44-.67-8.56-13.16-17.54-23.94-.36-.43-.6-.71-.83-.98-7.97-9.42-11.96-14.13-16.06-15.52-4.29-1.45-9.54-.84-13.43,1.83-.99.68-5.98,4.09-5.87,9.78.06,3.25,1.79,6.99,4.83,8.48,3.54,1.73,6.52-.73,7.83.78,1.68,1.93-1.31,8.17-5.48,12.13-.6.57-6.97,6.44-15.57,6.04-11.82-.55-22.35-12.69-23.37-24.55-1.26-14.62,11.35-29.87,30.02-31.76-7.71-6.15-17.2-12.73-28.54-18.82-19.66-10.56-38.01-15.93-52.07-18.79-.73-7.44-4.99-13.87-11.3-16.64-6.21-2.73-12.15-.81-14-.22-7.19,2.32-10.93,7.66-12.04,9.37-1.98-2.48-8.22-9.63-18.88-11.96-3.38-.74-12.38-2.71-20.99,2.7-8.4,5.28-10.7,13.98-11.25,16.41-1.92,8.56.96,15.44,1.97,17.6-2.18.49-6.45,1.79-10.23,5.46-.77.75-9.53,9.44-6.06,19.55,2.7,7.86,10.74,10.6,11.82,10.95-4.85,5.23-6.19,12.34-3.46,17.71,1.75,3.45,5.62,7.04,10.01,7.13,5.49.11,8.48-5.2,9.81-4.26,1.62,1.15-.34,10.9-7.48,15.24-5.86,3.56-13.96,2.72-19.07-1.58-2.13-1.79-3.35-3.86-4.03-5.29-.96,2.08-2.62,4.89-5.52,7.14-9.99,7.75-28.19,3.84-38.67-6.54-6.57-6.5-11.74-17.16-9.82-29.2,2.55-15.97,15.8-23.28,17.31-24.08-2.46-3.1-8.32-11.38-8.53-23.03-.16-9.16,3.27-15.93,5.15-19.55.07-.13.17-.32.29-.55,0,0,4.24-7.85,11.9-14.28,4.62-3.87,13.58-9.34,33.52-15.72,8.13-2.6,17.34-5.51,30.24-7.74,5.62-.97,21.51-3.45,42.68-2.76,36.79,1.2,63.85,11.37,69.52,13.56,5.27,2.04,24.3,9.66,46.17,25.3,15.08,10.79,56.36,43.17,79.24,100.63,9.23,23.18,12.77,43.86,14.28,57.13Z"/>
</svg>